<svg xmlns="http://www.w3.org/2000/svg" width="15.491" height="16.598" viewBox="0 0 15.491 16.598">
  <g id="calendar_2_" data-name="calendar (2)" transform="translate(0 0)">
    <path id="Path_23" data-name="Path 23" d="M17.215,1.107H15.278V.277A.276.276,0,0,0,15,0H13.065a.276.276,0,0,0-.277.277v.83H6.7V.277A.276.276,0,0,0,6.426,0H4.49a.276.276,0,0,0-.277.277v.83H2.277A.276.276,0,0,0,2,1.383V16.321a.276.276,0,0,0,.277.277H17.215a.276.276,0,0,0,.277-.277V1.383A.276.276,0,0,0,17.215,1.107ZM13.342.553h1.383v1.66H13.342V.553Zm-8.575,0H6.149v1.66H4.766V.553ZM2.553,1.66h1.66v.83a.276.276,0,0,0,.277.277H6.426A.276.276,0,0,0,6.7,2.49V1.66h6.086v.83a.276.276,0,0,0,.277.277H15a.276.276,0,0,0,.277-.277V1.66h1.66v2.49H2.553Zm0,14.385V4.7H16.938V16.044Z" transform="translate(-2)" fill="#8e8e8e"/>
    <path id="Path_24" data-name="Path 24" d="M18.469,23H11v8.022H21.512V23H18.469Zm-1.936.553h1.936V25.49H16.533Zm1.936,4.426H16.533V26.043h1.936Zm-4.426-1.936h1.936v1.936H14.043Zm0-2.49h1.936V25.49H14.043Zm-2.49,0H13.49V25.49H11.553Zm0,2.49H13.49v1.936H11.553Zm1.936,4.426H11.553V28.533H13.49Zm2.49,0H14.043V28.533h1.936Zm2.49,0H16.533V28.533h1.936Zm2.49,0H19.022V28.533h1.936Zm0-2.49H19.022V26.043h1.936Zm0-4.426V25.49H19.022V23.553Z" transform="translate(-8.51 -16.638)" fill="#8e8e8e"/>
    <path id="Path_25" data-name="Path 25" d="M17.215,1.107H15.278V.277A.276.276,0,0,0,15,0H13.065a.276.276,0,0,0-.277.277v.83H6.7V.277A.276.276,0,0,0,6.426,0H4.49a.276.276,0,0,0-.277.277v.83H2.277A.276.276,0,0,0,2,1.383V16.321a.276.276,0,0,0,.277.277H17.215a.276.276,0,0,0,.277-.277V1.383A.276.276,0,0,0,17.215,1.107ZM13.342.553h1.383v1.66H13.342V.553Zm-8.575,0H6.149v1.66H4.766V.553ZM2.553,1.66h1.66v.83a.276.276,0,0,0,.277.277H6.426A.276.276,0,0,0,6.7,2.49V1.66h6.086v.83a.276.276,0,0,0,.277.277H15a.276.276,0,0,0,.277-.277V1.66h1.66v2.49H2.553Zm0,14.385V4.7H16.938V16.044Z" transform="translate(-2)" fill="#8e8e8e"/>
  </g>
</svg>
