<svg xmlns="http://www.w3.org/2000/svg" width="14.148" height="18.857" viewBox="0 0 14.148 18.857">
  <g id="placeholder-filled-point" transform="translate(0.5 0.5)">
    <path id="Path_1135" data-name="Path 1135" d="M19.457,0a6.582,6.582,0,0,0-6.574,6.574,6.413,6.413,0,0,0,.575,2.684A41.452,41.452,0,0,0,19.18,17.73a.366.366,0,0,0,.554,0,41.473,41.473,0,0,0,5.722-8.472,6.41,6.41,0,0,0,.575-2.684A6.582,6.582,0,0,0,19.457,0Zm0,9.989a3.415,3.415,0,1,1,3.415-3.415A3.419,3.419,0,0,1,19.457,9.989Z" transform="translate(-12.883 0)" fill="none" stroke="#707070" stroke-width="1"/>
  </g>
</svg>
