<svg xmlns="http://www.w3.org/2000/svg" width="15.591" height="16.192" viewBox="0 0 15.591 16.192">
  <path id="Path_530" data-name="Path 530" d="M15.518,12.916a8.055,8.055,0,0,0-4.57-5.229,4.56,4.56,0,0,0,1.335-3.133,4.4,4.4,0,0,0-1.4-3.228A4.34,4.34,0,0,0,4.8,1.313,4.41,4.41,0,0,0,3.394,4.551,4.547,4.547,0,0,0,4.729,7.687a8.121,8.121,0,0,0-4.266,4.34,4.355,4.355,0,0,0-.419,1.562A2.556,2.556,0,0,0,.75,15.465a2.589,2.589,0,0,0,1.879.8c.456,0,.95,0,1.562,0H8.48c1.48,0,3.008,0,4.512,0a2.646,2.646,0,0,0,2.146-1.044A2.6,2.6,0,0,0,15.518,12.916ZM6.287,8.6c.375-.1.568-.287.605-.591a.689.689,0,0,0-.46-.754,3,3,0,0,1-1.663-2.38A3.069,3.069,0,0,1,7.781,1.411a3.47,3.47,0,0,1,1.4.318,2.836,2.836,0,0,1,1.724,2.724A2.934,2.934,0,0,1,9.2,7.272a.692.692,0,0,0,.155,1.322,6.805,6.805,0,0,1,3.12,1.707,7.029,7.029,0,0,1,1.758,3.1,1.137,1.137,0,0,1-.22,1.011,1.188,1.188,0,0,1-.923.49h-.014c-1.247-.02-2.5-.017-3.718-.014h-.01c-.5,0-1.014,0-1.518,0s-1.038,0-1.507-.007c-1.2-.007-2.447-.014-3.671.02a1.228,1.228,0,0,1-1-.5,1.189,1.189,0,0,1-.21-1.075,7.112,7.112,0,0,1,1.761-3.042A6.877,6.877,0,0,1,6.287,8.6Z" transform="translate(-0.042 -0.075)" fill="#727272"/>
</svg>
